<?xml version="1.0" encoding="UTF-8" standalone="no"?><!DOCTYPE svg PUBLIC "-//W3C//DTD SVG 1.1//EN" "http://www.w3.org/Graphics/SVG/1.1/DTD/svg11.dtd"><svg width="100%" height="100%" viewBox="0 0 400 400" version="1.1" xmlns="http://www.w3.org/2000/svg" xmlns:xlink="http://www.w3.org/1999/xlink" xml:space="preserve" xmlns:serif="http://www.serif.com/" style="fill-rule:evenodd;clip-rule:evenodd;stroke-linejoin:round;stroke-miterlimit:2;"><g id="Ebene-1" serif:id="Ebene 1"><path d="M380,200c0,99.411 -80.589,180 -180,180c-99.411,0 -180,-80.589 -180,-180c0,-99.411 80.589,-180 180,-180c99.411,0 180,80.589 180,180" style="fill:#3fa9f5;fill-rule:nonzero;"/><path d="M304.102,103.17c-16.689,-30.084 -38.556,-32.423 -44.86,-32.423c-4.529,0 -8.363,1.042 -10.797,2.935l-7.454,5.794l8.412,4.288c1.117,0.57 2.236,1.111 3.341,1.643c5.553,2.68 9.025,4.494 10.336,7.878c1.829,4.722 0.094,13.394 -5.156,25.773c-7.599,17.919 -16.576,35.648 -26.717,52.773c-23.802,-11.287 -51.371,-17.99 -86.175,-21.001c-0.285,-0.025 -0.489,-0.029 -0.609,-0.029l-5.443,0.001l-0.547,5.39c-0.129,1.269 -0.1,5.493 5.683,6.679c12.187,2.5 42.925,10.186 74.447,29.07c-22.709,34.151 -60.991,81.67 -118.659,123.661c-4.423,3.219 -9.297,8.87 -4.321,13.398c1.855,1.688 6.967,-0.404 7.866,-0.83c53.252,-25.248 99.853,-65.465 138.595,-119.841c13.013,10.505 24.148,22.298 33.155,35.125c2.945,4.194 7.659,6.599 12.934,6.599c6.182,0 11.68,-3.237 14.005,-8.246c2.279,-4.909 1.141,-10.621 -3.125,-15.671c-13.788,-16.322 -27.699,-29.315 -42.38,-39.563c21.483,-34.107 32.886,-62.053 36.347,-71.164c0.684,0.053 1.543,0.22 2.316,0.371c1.158,0.226 2.354,0.459 3.572,0.459c3.867,0 5.678,-2.366 6.278,-3.384c2.228,-3.785 0.019,-7.77 -1.044,-9.685" style="fill:#fff;fill-rule:nonzero;"/></g></svg>